<svg width="400" height="400" viewBox="0 0 400 400" fill="none" xmlns="http://www.w3.org/2000/svg">
  <!-- Background gradient -->
  <rect width="400" height="400" rx="200" fill="url(#paint0_radial)" />
  
  <!-- Abstract face shape -->
  <path d="M200 320C255.228 320 300 275.228 300 220C300 164.772 255.228 120 200 120C144.772 120 100 164.772 100 220C100 275.228 144.772 320 200 320Z" fill="#F9FAFB" fill-opacity="0.9" />
  
  <!-- Abstract AI features -->
  <path d="M160 200C171.046 200 180 191.046 180 180C180 168.954 171.046 160 160 160C148.954 160 140 168.954 140 180C140 191.046 148.954 200 160 200Z" fill="#8B5CF6" />
  <path d="M240 200C251.046 200 260 191.046 260 180C260 168.954 251.046 160 240 160C228.954 160 220 168.954 220 180C220 191.046 228.954 200 240 200Z" fill="#8B5CF6" />
  
  <!-- Smile -->
  <path d="M160 240C160 240 180 280 200 280C220 280 240 240 240 240" stroke="#8B5CF6" stroke-width="8" stroke-linecap="round" />
  
  <!-- Circuit patterns -->
  <path d="M100 140L140 140" stroke="#EC4899" stroke-width="4" stroke-linecap="round" />
  <path d="M260 140L300 140" stroke="#EC4899" stroke-width="4" stroke-linecap="round" />
  <path d="M120 100L120 140" stroke="#EC4899" stroke-width="4" stroke-linecap="round" />
  <path d="M280 100L280 140" stroke="#EC4899" stroke-width="4" stroke-linecap="round" />
  
  <path d="M100 300L140 300" stroke="#8B5CF6" stroke-width="4" stroke-linecap="round" />
  <path d="M260 300L300 300" stroke="#8B5CF6" stroke-width="4" stroke-linecap="round" />
  <path d="M120 300L120 340" stroke="#8B5CF6" stroke-width="4" stroke-linecap="round" />
  <path d="M280 300L280 340" stroke="#8B5CF6" stroke-width="4" stroke-linecap="round" />
  
  <!-- Data points -->
  <circle cx="100" cy="100" r="8" fill="#EC4899" />
  <circle cx="300" cy="100" r="8" fill="#EC4899" />
  <circle cx="100" cy="300" r="8" fill="#8B5CF6" />
  <circle cx="300" cy="300" r="8" fill="#8B5CF6" />
  
  <!-- Gradient definitions -->
  <defs>
    <radialGradient id="paint0_radial" cx="0" cy="0" r="1" gradientUnits="userSpaceOnUse" gradientTransform="translate(200 200) rotate(90) scale(200)">
      <stop offset="0" stop-color="#8B5CF6" />
      <stop offset="1" stop-color="#EC4899" />
    </radialGradient>
  </defs>
</svg> 